<svg xmlns="http://www.w3.org/2000/svg" xmlns:xlink="http://www.w3.org/1999/xlink" version="1.1" id="Capa_1" viewBox="0 0 380.887 380.887" style="enable-background:new 0 0 380.887 380.887;" xml:space="preserve">
<g>
	<path d="M261.455,104.246c-4.811,11.256,11.728,21.044,16.581,9.69c9.407-21.979,11.697-50.336-7.898-67.641   c-9.249-8.16-22.883,5.371-13.578,13.582C269.2,71.045,267.593,89.9,261.455,104.246z"></path>
	<path d="M249.752,203.791c42.989-10.747,73.995-74.552,73.995-117.252C323.747,38.821,284.923,0,237.208,0   c-17.232,0-33.265,5.118-46.765,13.834C176.943,5.118,160.908,0,143.679,0C95.961,0,57.14,38.821,57.14,86.539   c0,43.391,32.017,108.575,76.096,117.728c-4.391,7.55-7.048,15.753-5.669,25.27c3.435,23.748,28.894,54.534,1.995,71.864   c-35.676,22.98-15.594,46.144-0.061,74.836c5.742,10.613,21.891,1.169,16.148-9.438c-9.819-18.146-26.238-36.626-2.381-51.989   c6.041-3.891,12.047-8.981,14.845-15.758c13.655-33.089-27.459-63.607-2.231-94.724c0.137-0.177,0.225-0.359,0.35-0.536   c12.595-3.142,24.156-10.851,34.218-21.248c10.62,10.976,22.907,18.934,36.322,21.723c-4.391,7.55-7.052,15.753-5.669,25.27   c3.434,23.748,28.893,54.534,1.991,71.864c-35.674,22.98-15.589,46.144-0.062,74.836c5.748,10.613,21.896,1.169,16.148-9.438   c-9.815-18.146-26.231-36.626-2.375-51.989c6.041-3.891,12.045-8.981,14.846-15.758c13.652-33.089-27.462-63.607-2.234-94.724   C249.545,204.15,249.63,203.968,249.752,203.791z M202.476,167.923c-2.155-2.372-4.232-4.92-6.232-7.59   c-2.021-2.697-3.961-5.529-5.8-8.473c-6.442-10.294-11.722-21.854-15.381-33.266c-2.277-7.097-3.937-14.124-4.853-20.733   c-0.548-3.945-0.834-7.748-0.834-11.322c0-4.869,0.542-9.609,1.522-14.191c1.739-8.12,4.951-15.688,9.313-22.453   c2.92-4.527,6.354-8.674,10.233-12.37c2.283-2.184,4.719-4.196,7.289-6.044c2.575-1.851,5.267-3.541,8.092-5.023   c9.402-4.926,20.058-7.751,31.384-7.751c37.405,0,67.833,30.427,67.833,67.833c0,37.731-31.7,100.145-67.833,100.145   C224.726,186.684,212.778,179.234,202.476,167.923z M143.679,186.684c-36.127,0-67.833-62.414-67.833-100.145   c0-37.406,30.428-67.833,67.833-67.833c11.323,0,21.985,2.826,31.383,7.751c-15.064,15.582-24.393,36.751-24.393,60.082   c0,24.85,10.495,56.848,27.739,81.384C168.108,179.234,156.161,186.684,143.679,186.684z"></path>
</g>
</svg>
